<svg width="1137" height="762" xmlns="http://www.w3.org/2000/svg" xmlns:xlink="http://www.w3.org/1999/xlink" xml:space="preserve" overflow="hidden"><defs><clipPath id="clip0"><rect x="260" y="200" width="1137" height="762"/></clipPath></defs><g clip-path="url(#clip0)" transform="translate(-260 -200)"><path d="M260 327C260 256.86 316.86 200 387 200L1270 200C1340.14 200 1397 256.86 1397 327L1397 835C1397 905.14 1340.14 962 1270 962L387 962C316.86 962 260 905.14 260 835Z" fill="#FFFFFF" fill-rule="evenodd"/><rect x="338.5" y="603" width="125.5" height="124.5" fill="#3067FF"/><path d="M464 603 505.5 561.5 505.5 686 464 727.5Z" fill="#2753CD" fill-rule="evenodd"/><path d="M338.5 603 380 561.5 505.5 561.5 464 603Z" fill="#5985FF" fill-rule="evenodd"/><path d="M338.5 603 380 561.5 505.5 561.5 505.5 686 464 727.5 338.5 727.5ZM338.5 603 464 603 505.5 561.5M464 603 464 727.5" stroke="#FFFFFF" stroke-width="6.875" stroke-miterlimit="8" fill="none" fill-rule="evenodd"/><rect x="477.5" y="603" width="125.5" height="124.5" fill="#3067FF"/><path d="M603 603 644.5 561.5 644.5 686 603 727.5Z" fill="#2753CD" fill-rule="evenodd"/><path d="M477.5 603 519 561.5 644.5 561.5 603 603Z" fill="#5985FF" fill-rule="evenodd"/><path d="M477.5 603 519 561.5 644.5 561.5 644.5 686 603 727.5 477.5 727.5ZM477.5 603 603 603 644.5 561.5M603 603 603 727.5" stroke="#FFFFFF" stroke-width="6.875" stroke-miterlimit="8" fill="none" fill-rule="evenodd"/><rect x="408.5" y="474" width="124.5" height="124.5" fill="#3067FF"/><path d="M533 474 574.5 432.5 574.5 557 533 598.5Z" fill="#2753CD" fill-rule="evenodd"/><path d="M408.5 474 450 432.5 574.5 432.5 533 474Z" fill="#5985FF" fill-rule="evenodd"/><path d="M408.5 474 450 432.5 574.5 432.5 574.5 557 533 598.5 408.5 598.5ZM408.5 474 533 474 574.5 432.5M533 474 533 598.5" stroke="#FFFFFF" stroke-width="6.875" stroke-miterlimit="8" fill="none" fill-rule="evenodd"/><path d="M695 554.5 843 554.5 843 530 892 579 843 628 843 603.5 695 603.5Z" fill="#3067FF" fill-rule="evenodd"/><rect x="925.5" y="420.843" width="339.657" height="339.657" fill="#3067FF"/><path d="M1265.16 420.843 1323.5 362.5 1323.5 702.157 1265.16 760.5Z" fill="#2753CD" fill-rule="evenodd"/><path d="M925.5 420.843 983.843 362.5 1323.5 362.5 1265.16 420.843Z" fill="#5985FF" fill-rule="evenodd"/><path d="M925.5 420.843 983.843 362.5 1323.5 362.5 1323.5 702.157 1265.16 760.5 925.5 760.5ZM925.5 420.843 1265.16 420.843 1323.5 362.5M1265.16 420.843 1265.16 760.5" stroke="#FFFFFF" stroke-width="6.875" stroke-miterlimit="8" fill="none" fill-rule="evenodd"/><rect x="1003.5" y="612.5" width="185" height="25.9998" stroke="#FFFFFF" stroke-width="6.875" stroke-miterlimit="8" fill="#3067FF"/><rect x="1003.5" y="652.5" width="185" height="27.0002" stroke="#FFFFFF" stroke-width="6.875" stroke-miterlimit="8" fill="#3067FF"/><rect x="1003.5" y="692.5" width="185" height="26.9998" stroke="#FFFFFF" stroke-width="6.875" stroke-miterlimit="8" fill="#3067FF"/><rect x="1003.5" y="733.5" width="185" height="26.9998" stroke="#FFFFFF" stroke-width="6.875" stroke-miterlimit="8" fill="#3067FF"/><rect x="1003.5" y="571.5" width="185" height="26.9998" stroke="#FFFFFF" stroke-width="6.875" stroke-miterlimit="8" fill="#3067FF"/></g></svg>