<svg width="1137" height="762" xmlns="http://www.w3.org/2000/svg" xmlns:xlink="http://www.w3.org/1999/xlink" xml:space="preserve" overflow="hidden"><defs><clipPath id="clip0"><rect x="260" y="200" width="1137" height="762"/></clipPath></defs><g clip-path="url(#clip0)" transform="translate(-260 -200)"><path d="M260 327C260 256.86 316.86 200 387 200L1270 200C1340.14 200 1397 256.86 1397 327L1397 835C1397 905.14 1340.14 962 1270 962L387 962C316.86 962 260 905.14 260 835Z" fill="#FFFFFF" fill-rule="evenodd"/><rect x="570.5" y="599.25" width="204.25" height="203.25" fill="#3067FF"/><path d="M774.75 599.25 842.5 531.5 842.5 734.75 774.75 802.5Z" fill="#2753CD" fill-rule="evenodd"/><path d="M570.5 599.25 638.25 531.5 842.5 531.5 774.75 599.25Z" fill="#5985FF" fill-rule="evenodd"/><path d="M570.5 599.25 638.25 531.5 842.5 531.5 842.5 734.75 774.75 802.5 570.5 802.5ZM570.5 599.25 774.75 599.25 842.5 531.5M774.75 599.25 774.75 802.5" stroke="#FFFFFF" stroke-width="6.875" stroke-miterlimit="8" fill="none" fill-rule="evenodd"/><rect x="797.5" y="599.25" width="204.25" height="203.25" fill="#3067FF"/><path d="M1001.75 599.25 1069.5 531.5 1069.5 734.75 1001.75 802.5Z" fill="#2753CD" fill-rule="evenodd"/><path d="M797.5 599.25 865.25 531.5 1069.5 531.5 1001.75 599.25Z" fill="#5985FF" fill-rule="evenodd"/><path d="M797.5 599.25 865.25 531.5 1069.5 531.5 1069.5 734.75 1001.75 802.5 797.5 802.5ZM797.5 599.25 1001.75 599.25 1069.5 531.5M1001.75 599.25 1001.75 802.5" stroke="#FFFFFF" stroke-width="6.875" stroke-miterlimit="8" fill="none" fill-rule="evenodd"/><rect x="684.5" y="388.25" width="203.25" height="203.25" fill="#3067FF"/><path d="M887.75 388.25 955.5 320.5 955.5 523.75 887.75 591.5Z" fill="#2753CD" fill-rule="evenodd"/><path d="M684.5 388.25 752.25 320.5 955.5 320.5 887.75 388.25Z" fill="#5985FF" fill-rule="evenodd"/><path d="M684.5 388.25 752.25 320.5 955.5 320.5 955.5 523.75 887.75 591.5 684.5 591.5ZM684.5 388.25 887.75 388.25 955.5 320.5M887.75 388.25 887.75 591.5" stroke="#FFFFFF" stroke-width="6.875" stroke-miterlimit="8" fill="none" fill-rule="evenodd"/></g></svg>