<svg width="1137" height="761" xmlns="http://www.w3.org/2000/svg" xmlns:xlink="http://www.w3.org/1999/xlink" xml:space="preserve" overflow="hidden"><defs><clipPath id="clip0"><rect x="1558" y="1091" width="1137" height="761"/></clipPath></defs><g clip-path="url(#clip0)" transform="translate(-1558 -1091)"><path d="M1558 1217.83C1558 1147.79 1614.79 1091 1684.83 1091L2568.17 1091C2638.21 1091 2695 1147.79 2695 1217.83L2695 1725.17C2695 1795.21 2638.21 1852 2568.17 1852L1684.83 1852C1614.79 1852 1558 1795.21 1558 1725.17Z" fill="#FFFFFF" fill-rule="evenodd"/><path d="M2190 1505.5 2042 1505.5 2042 1530 1993 1481 2042 1432 2042 1456.5 2190 1456.5Z" fill="#3067FF" fill-rule="evenodd"/><rect x="2223.5" y="1311.7" width="339.804" height="338.804" fill="#3067FF"/><path d="M2563.3 1311.7 2621.5 1253.5 2621.5 1592.3 2563.3 1650.5Z" fill="#2753CD" fill-rule="evenodd"/><path d="M2223.5 1311.7 2281.7 1253.5 2621.5 1253.5 2563.3 1311.7Z" fill="#5985FF" fill-rule="evenodd"/><path d="M2223.5 1311.7 2281.7 1253.5 2621.5 1253.5 2621.5 1592.3 2563.3 1650.5 2223.5 1650.5ZM2223.5 1311.7 2563.3 1311.7 2621.5 1253.5M2563.3 1311.7 2563.3 1650.5" stroke="#FFFFFF" stroke-width="6.875" stroke-miterlimit="8" fill="none" fill-rule="evenodd"/><rect x="2301.5" y="1502.5" width="185" height="26.9998" stroke="#FFFFFF" stroke-width="6.875" stroke-miterlimit="8" fill="#3067FF"/><rect x="2301.5" y="1543.5" width="185" height="26.0001" stroke="#FFFFFF" stroke-width="6.875" stroke-miterlimit="8" fill="#3067FF"/><rect x="2301.5" y="1583.5" width="185" height="26.9998" stroke="#FFFFFF" stroke-width="6.875" stroke-miterlimit="8" fill="#3067FF"/><rect x="2301.5" y="1624.5" width="185" height="25.9998" stroke="#FFFFFF" stroke-width="6.875" stroke-miterlimit="8" fill="#3067FF"/><rect x="2301.5" y="1462.5" width="185" height="26.9998" stroke="#FFFFFF" stroke-width="6.875" stroke-miterlimit="8" fill="#3067FF"/><g><g><g><path d="M1678.72 1589.62C1676.31 1592.03 1673.22 1592.72 1670.13 1591.34 1667.03 1589.97 1665.31 1587.22 1665.31 1584.12 1665.31 1581.03 1667.38 1577.94 1670.13 1576.91 1673.22 1575.53 1676.31 1576.22 1678.72 1578.62 1681.81 1581.37 1681.81 1586.53 1678.72 1589.62ZM1921.41 1363.09 1893.56 1390.94 1871.56 1385.09 1866.06 1363.44 1893.91 1335.59C1877.41 1329.41 1858.84 1333.19 1845.78 1344.87 1832.72 1356.91 1827.56 1374.78 1832.03 1391.97L1656.72 1567.28C1650.53 1573.12 1648.13 1582.06 1650.19 1590.31 1652.25 1598.56 1658.78 1605.09 1667.03 1607.16 1675.28 1609.22 1683.88 1606.81 1690.06 1600.62L1865.38 1425.31C1882.56 1429.78 1900.44 1424.62 1912.47 1411.56 1924.16 1398.5 1927.94 1379.59 1921.41 1363.09Z" fill="#3067FF"/><path d="M1920.03 1567.28 1831.34 1478.59 1795.59 1514.34 1881.53 1600.28 1884.63 1603.37 1884.97 1603.03C1894.94 1610.25 1908.69 1608.87 1917.28 1600.28 1925.88 1591.34 1926.91 1577.59 1920.03 1567.28L1920.03 1567.28Z" fill="#3067FF"/><path d="M1699.69 1373.06 1700.03 1372.72 1691.09 1356.22 1661.53 1332.5 1649.5 1344.53 1673.22 1374.09 1689.72 1383.03 1690.06 1382.69 1755.72 1448.34 1765.34 1438.72Z" fill="#3067FF"/></g></g></g></g></svg>