<svg width="1165" height="790" xmlns="http://www.w3.org/2000/svg" xmlns:xlink="http://www.w3.org/1999/xlink" xml:space="preserve" overflow="hidden"><g transform="translate(-1544 -176)"><path d="M1558 317C1558 246.86 1614.86 190 1685 190L2568 190C2638.14 190 2695 246.86 2695 317L2695 825C2695 895.14 2638.14 952 2568 952L1685 952C1614.86 952 1558 895.14 1558 825Z" stroke="#FFFFFF" stroke-width="27.5" stroke-miterlimit="8" fill="#FFFFFF" fill-rule="evenodd"/><g><g><g><path d="M2162.92 600.846C2169.07 606.818 2169.21 616.643 2163.24 622.789 2163.13 622.896 2163.03 623.001 2162.92 623.105L2136.27 631.882 2131.57 627.182 2140.35 600.535C2146.71 594.503 2156.73 594.641 2162.92 600.846ZM2283.33 439.994 2129.41 594.263 2109.62 653.83 2169.5 634.076 2323.46 480.151Z" fill="#3067FF"/><path d="M2356.99 428.728 2334.73 406.469C2329.9 401.534 2321.99 401.444 2317.06 406.267 2316.99 406.333 2316.92 406.401 2316.86 406.469L2294.91 428.417 2334.73 468.208 2356.67 446.266C2361.59 441.935 2362.07 434.433 2357.74 429.511 2357.5 429.239 2357.25 428.977 2356.99 428.728Z" fill="#3067FF"/><path d="M2005.92 653.792 2092.39 653.792 2099.63 631.958 2005.92 631.958 2005.92 653.792Z" fill="#3067FF"/><path d="M2005.92 522.792 2177.57 522.792 2199.36 500.958 2005.92 500.958 2005.92 522.792Z" fill="#3067FF"/><path d="M2246.08 580.65 2246.08 746.583 1973.17 746.583 1973.17 408.167 2033.21 408.167 2033.21 440.917 2186.04 440.917 2186.04 408.167 2246.08 408.167 2246.08 454.137 2271.74 428.417 2271.74 428.417 2272.67 427.484 2278.83 421.321 2278.83 397.25C2278.83 385.192 2269.06 375.417 2257 375.417L2164.21 375.417 2164.21 364.5C2164.21 352.442 2154.43 342.667 2142.38 342.667L2076.88 342.667C2064.82 342.667 2055.04 352.442 2055.04 364.5L2055.04 375.417 1962.25 375.417C1950.19 375.417 1940.42 385.192 1940.42 397.25L1940.42 757.5C1940.42 769.558 1950.19 779.333 1962.25 779.333L2257 779.333C2269.06 779.333 2278.83 769.558 2278.83 757.5L2278.83 547.9ZM2097.97 369.216C2101.05 366.126 2105.26 364.424 2109.62 364.5 2118.67 364.5 2126 371.831 2126 380.875 2126 389.919 2118.67 397.25 2109.62 397.25 2100.58 397.25 2093.25 389.919 2093.25 380.875 2093.17 376.509 2094.88 372.301 2097.97 369.216Z" fill="#3067FF"/><path d="M2005.92 588.292 2112.07 588.292 2133.86 566.458 2005.92 566.458 2005.92 588.292Z" fill="#3067FF"/></g></g></g></g></svg>