<svg width="1165" height="789" xmlns="http://www.w3.org/2000/svg" xmlns:xlink="http://www.w3.org/1999/xlink" xml:space="preserve" overflow="hidden"><g transform="translate(-1544 -1077)"><path d="M1558 1217.83C1558 1147.79 1614.79 1091 1684.83 1091L2568.17 1091C2638.21 1091 2695 1147.79 2695 1217.83L2695 1725.17C2695 1795.21 2638.21 1852 2568.17 1852L1684.83 1852C1614.79 1852 1558 1795.21 1558 1725.17Z" stroke="#FFFFFF" stroke-width="27.5" stroke-miterlimit="8" fill="#FFFFFF" fill-rule="evenodd"/><g><g><g><path d="M1994.1 1504.38 2118.21 1504.38 2118.21 1542.15 2139.79 1542.15 2139.79 1504.38 2263.9 1504.38 2263.9 1542.15 2285.48 1542.15 2285.48 1482.79 2139.79 1482.79 2139.79 1445.02 2118.21 1445.02 2118.21 1482.79 1972.52 1482.79 1972.52 1542.15 1994.1 1542.15 1994.1 1504.38Z" fill="#3067FF"/><path d="M2274.69 1563.73C2244.89 1563.73 2220.73 1587.89 2220.73 1617.69 2220.73 1647.49 2244.89 1671.65 2274.69 1671.65 2304.49 1671.65 2328.65 1647.49 2328.65 1617.69 2328.65 1587.89 2304.49 1563.73 2274.69 1563.73ZM2274.69 1581.64C2283.22 1581.64 2290.13 1588.55 2290.14 1597.08 2290.14 1605.6 2283.23 1612.52 2274.7 1612.52 2266.17 1612.53 2259.25 1605.61 2259.25 1597.09 2259.25 1597.08 2259.25 1597.08 2259.25 1597.08 2259.25 1588.55 2266.16 1581.64 2274.69 1581.64ZM2305.57 1644.99 2243.81 1644.99 2243.81 1632.07C2243.82 1629.64 2244.96 1627.36 2246.9 1625.89 2251.47 1622.61 2256.58 1620.17 2262.01 1618.69 2266.1 1617.34 2270.38 1616.65 2274.69 1616.64 2278.99 1616.76 2283.26 1617.45 2287.38 1618.69 2292.89 1619.95 2298.05 1622.41 2302.49 1625.89 2304.49 1627.31 2305.65 1629.63 2305.58 1632.07Z" fill="#3067FF"/><path d="M2129 1563.73C2099.2 1563.73 2075.04 1587.89 2075.04 1617.69 2075.04 1647.49 2099.2 1671.65 2129 1671.65 2158.8 1671.65 2182.96 1647.49 2182.96 1617.69 2182.96 1587.89 2158.8 1563.73 2129 1563.73ZM2129 1581.64C2137.53 1581.64 2144.45 1588.55 2144.45 1597.08 2144.45 1605.6 2137.54 1612.52 2129.01 1612.52 2120.48 1612.53 2113.57 1605.61 2113.56 1597.09 2113.56 1597.08 2113.56 1597.08 2113.56 1597.08 2113.56 1588.55 2120.47 1581.64 2129 1581.64ZM2159.88 1644.99 2098.12 1644.99 2098.12 1632.07C2098.13 1629.64 2099.27 1627.36 2101.21 1625.89 2105.78 1622.61 2110.89 1620.17 2116.32 1618.69 2120.41 1617.34 2124.69 1616.65 2129 1616.64 2133.3 1616.76 2137.57 1617.45 2141.7 1618.69 2147.2 1619.95 2152.36 1622.41 2156.8 1625.89 2158.8 1627.31 2159.96 1629.63 2159.9 1632.07Z" fill="#3067FF"/><path d="M1983.31 1563.73C1953.51 1563.73 1929.35 1587.89 1929.35 1617.69 1929.35 1647.49 1953.51 1671.65 1983.31 1671.65 2013.11 1671.65 2037.27 1647.49 2037.27 1617.69 2037.27 1587.89 2013.11 1563.73 1983.31 1563.73ZM1983.31 1581.64C1991.84 1581.64 1998.76 1588.55 1998.76 1597.08 1998.76 1605.6 1991.85 1612.52 1983.32 1612.52 1974.79 1612.53 1967.88 1605.61 1967.88 1597.09 1967.88 1597.08 1967.88 1597.08 1967.88 1597.08 1967.88 1588.55 1974.79 1581.64 1983.31 1581.64ZM2014.19 1644.99 1952.43 1644.99 1952.43 1632.07C1952.44 1629.64 1953.59 1627.36 1955.52 1625.89 1960.09 1622.61 1965.21 1620.17 1970.63 1618.69 1974.73 1617.34 1979 1616.65 1983.31 1616.64 1987.62 1616.76 1991.89 1617.45 1996.01 1618.69 2001.51 1619.95 2006.67 1622.41 2011.12 1625.89 2013.11 1627.31 2014.27 1629.63 2014.21 1632.07Z" fill="#3067FF"/><path d="M2129 1423.44C2170.72 1423.44 2204.54 1389.62 2204.54 1347.9 2204.54 1306.18 2170.72 1272.35 2129 1272.35 2087.28 1272.35 2053.46 1306.18 2053.46 1347.9 2053.46 1389.62 2087.28 1423.44 2129 1423.44ZM2129 1297.42C2140.94 1297.42 2150.62 1307.1 2150.62 1319.04 2150.62 1330.98 2140.94 1340.65 2129 1340.65 2117.06 1340.65 2107.38 1330.98 2107.38 1319.04 2107.39 1307.1 2117.06 1297.43 2129 1297.42ZM2085.77 1368.03C2085.79 1364.64 2087.38 1361.45 2090.09 1359.4 2096.47 1354.81 2103.63 1351.39 2111.22 1349.32 2116.96 1347.42 2122.96 1346.44 2129 1346.42 2135.02 1346.6 2141 1347.57 2146.77 1349.3 2154.47 1351.08 2161.69 1354.52 2167.91 1359.39 2170.7 1361.37 2172.32 1364.6 2172.23 1368.02L2172.23 1387.48 2085.77 1387.48Z" fill="#3067FF"/></g></g></g></g></svg>