<svg width="1165" height="789" xmlns="http://www.w3.org/2000/svg" xmlns:xlink="http://www.w3.org/1999/xlink" xml:space="preserve" overflow="hidden"><g transform="translate(-246 -1077)"><path d="M260 1217.83C260 1147.79 316.785 1091 386.833 1091L1270.17 1091C1340.21 1091 1397 1147.79 1397 1217.83L1397 1725.17C1397 1795.21 1340.21 1852 1270.17 1852L386.833 1852C316.785 1852 260 1795.21 260 1725.17Z" stroke="#FFFFFF" stroke-width="27.5" stroke-miterlimit="8" fill="#FFFFFF" fill-rule="evenodd"/><g><g><g><path d="M650.031 1659.78C646.254 1663.55 641.398 1664.63 636.542 1662.47 631.685 1660.31 628.987 1656 628.987 1651.14 628.987 1646.29 632.225 1641.43 636.542 1639.81 641.398 1637.65 646.254 1638.73 650.031 1642.51 654.888 1646.83 654.888 1654.92 650.031 1659.78ZM1030.98 1304.19 987.271 1347.9 952.738 1338.72 944.104 1304.73 987.81 1261.02C961.91 1251.31 932.773 1257.25 912.269 1275.59 891.765 1294.48 883.671 1322.54 890.685 1349.51L615.498 1624.7C605.785 1633.88 602.008 1647.9 605.246 1660.85 608.483 1673.8 618.735 1684.06 631.685 1687.29 644.635 1690.53 658.125 1686.75 667.838 1677.04L943.025 1401.85C970.004 1408.87 998.062 1400.78 1016.95 1380.27 1035.29 1359.77 1041.23 1330.09 1030.98 1304.19Z" fill="#3067FF"/><path d="M1028.82 1624.7 889.606 1485.49 833.49 1541.61 968.385 1676.5 973.242 1681.36 973.781 1680.82C989.429 1692.15 1011.01 1689.99 1024.5 1676.5 1037.99 1662.47 1039.61 1640.89 1028.82 1624.7L1028.82 1624.7Z" fill="#3067FF"/><path d="M682.946 1319.84 683.485 1319.3 669.456 1293.4 623.052 1256.17 604.167 1275.05 641.398 1321.46 667.298 1335.49 667.838 1334.95 770.898 1438.01 786.006 1422.9Z" fill="#3067FF"/></g></g></g></g></svg>