<svg width="1165" height="790" xmlns="http://www.w3.org/2000/svg" xmlns:xlink="http://www.w3.org/1999/xlink" xml:space="preserve" overflow="hidden"><g transform="translate(-2842 -182)"><path d="M2856 323C2856 252.86 2912.86 196 2983 196L3866 196C3936.14 196 3993 252.86 3993 323L3993 831C3993 901.14 3936.14 958 3866 958L2983 958C2912.86 958 2856 901.14 2856 831Z" stroke="#FFFFFF" stroke-width="27.5" stroke-miterlimit="8" fill="#FFFFFF" fill-rule="evenodd"/><g><g><g><path d="M298.92 301.846C305.067 307.818 305.208 317.643 299.236 323.789 299.132 323.896 299.027 324.001 298.92 324.105L272.273 332.882 267.573 328.182 276.35 301.535C282.714 295.503 292.725 295.641 298.92 301.846ZM419.331 140.994 265.406 295.263 245.625 354.83 305.503 335.076 459.461 181.151Z" fill="#3067FF" transform="matrix(1 0 0 1 3162 305)"/><path d="M492.986 129.728 470.727 107.469C465.904 102.534 457.993 102.444 453.058 107.267 452.99 107.333 452.923 107.401 452.856 107.469L430.908 129.417 470.727 169.208 492.669 147.266C497.592 142.935 498.071 135.433 493.741 130.511 493.501 130.239 493.249 129.977 492.986 129.728Z" fill="#3067FF" transform="matrix(1 0 0 1 3162 305)"/><path d="M141.917 354.792 228.388 354.792 235.625 332.958 141.917 332.958 141.917 354.792Z" fill="#3067FF" transform="matrix(1 0 0 1 3162 305)"/><path d="M141.917 223.792 313.57 223.792 335.36 201.958 141.917 201.958 141.917 223.792Z" fill="#3067FF" transform="matrix(1 0 0 1 3162 305)"/><path d="M382.083 281.65 382.083 447.583 109.167 447.583 109.167 109.167 169.208 109.167 169.208 141.917 322.042 141.917 322.042 109.167 382.083 109.167 382.083 155.137 407.737 129.417 407.737 129.417 408.671 128.484 414.833 122.321 414.833 98.25C414.833 86.192 405.058 76.4166 393 76.4166L300.208 76.4166 300.208 65.5C300.208 53.4418 290.433 43.6667 278.375 43.6667L212.875 43.6667C200.817 43.6667 191.042 53.4418 191.042 65.5L191.042 76.4166 98.25 76.4166C86.192 76.4166 76.4166 86.192 76.4166 98.25L76.4166 458.5C76.4166 470.558 86.192 480.333 98.25 480.333L393 480.333C405.058 480.333 414.833 470.558 414.833 458.5L414.833 248.9ZM233.966 70.216C237.05 67.126 241.259 65.4236 245.625 65.5 254.669 65.5 262 72.8311 262 81.875 262 90.9189 254.669 98.25 245.625 98.25 236.581 98.25 229.25 90.9189 229.25 81.875 229.174 77.5094 230.876 73.3005 233.966 70.216Z" fill="#3067FF" transform="matrix(1 0 0 1 3162 305)"/><path d="M141.917 289.292 248.07 289.292 269.86 267.458 141.917 267.458 141.917 289.292Z" fill="#3067FF" transform="matrix(1 0 0 1 3162 305)"/></g></g></g><g><g><g><path d="M369.297 321.415C361.147 313.266 348.922 309.191 337.716 311.737L314.794 289.325C335.169 262.837 346.375 230.237 346.375 196.619 346.884 111.553 278.119 42.7875 193.562 42.2781 109.006 41.7687 40.2406 110.534 39.7312 195.091 39.2219 279.647 107.987 348.412 192.544 348.922 226.162 348.922 259.272 337.716 286.269 317.341L308.681 339.753C306.644 351.469 310.209 363.184 318.359 371.844L382.031 435.515C395.784 449.269 418.706 449.269 432.459 435.515 446.212 421.762 446.212 398.84 432.459 385.087L369.297 321.415ZM193.562 318.359C125.816 318.359 71.3125 263.856 71.3125 196.109 71.3125 128.362 125.816 73.8593 193.562 73.8593 261.309 73.8593 315.812 128.362 315.812 196.109 315.812 263.347 260.8 318.359 193.562 318.359Z" fill="#3067FF" transform="matrix(6.12323e-17 1 -1.00205 6.13576e-17 3848 221)"/><path d="M303.078 188.469 274.044 188.469C271.497 188.978 268.95 190.506 267.422 192.544L248.066 213.428 231.766 156.887C230.237 152.303 225.144 149.247 220.559 150.775 218.012 151.794 215.466 153.322 214.447 156.378L183.884 237.369 163 125.306C161.981 120.212 157.397 117.156 152.812 118.175 149.756 118.684 147.209 121.231 145.681 124.287L123.778 188.469 84.0468 188.469 84.0468 208.844 130.4 208.844C134.475 208.334 138.041 205.278 139.059 201.203L151.794 162.491 172.169 272.006C172.678 276.081 176.244 279.137 180.319 279.137L181.337 279.137C184.903 279.137 188.469 277.1 189.997 273.534L222.597 187.959 235.841 233.803C237.369 238.387 241.953 241.444 247.047 239.916 248.575 239.406 250.103 238.387 251.122 237.369L278.628 208.844 303.587 208.844 303.587 188.469Z" fill="#3067FF" transform="matrix(6.12323e-17 1 -1.00205 6.13576e-17 3848 221)"/></g></g></g><path d="M3529.5 415C3529.5 349.554 3582.78 296.5 3648.5 296.5 3714.22 296.5 3767.5 349.554 3767.5 415 3767.5 480.446 3714.22 533.5 3648.5 533.5 3582.78 533.5 3529.5 480.446 3529.5 415Z" stroke="#FFFFFF" stroke-width="6.875" stroke-miterlimit="8" fill="#FFFFFF" fill-rule="evenodd"/><rect x="3558.5" y="362.5" width="185" height="26.9998" stroke="#FFFFFF" stroke-width="6.875" stroke-miterlimit="8" fill="#3067FF"/><rect x="3558.5" y="403.5" width="185" height="25.9998" stroke="#FFFFFF" stroke-width="6.875" stroke-miterlimit="8" fill="#3067FF"/><rect x="3558.5" y="443.5" width="185" height="27.0002" stroke="#FFFFFF" stroke-width="6.875" stroke-miterlimit="8" fill="#3067FF"/></g></svg>