<svg width="1137" height="761" xmlns="http://www.w3.org/2000/svg" xmlns:xlink="http://www.w3.org/1999/xlink" xml:space="preserve" overflow="hidden"><defs><clipPath id="clip0"><rect x="260" y="1091" width="1137" height="761"/></clipPath></defs><g clip-path="url(#clip0)" transform="translate(-260 -1091)"><path d="M260 1217.83C260 1147.79 316.785 1091 386.833 1091L1270.17 1091C1340.21 1091 1397 1147.79 1397 1217.83L1397 1725.17C1397 1795.21 1340.21 1852 1270.17 1852L386.833 1852C316.785 1852 260 1795.21 260 1725.17Z" fill="#FFFFFF" fill-rule="evenodd"/><path d="M695 1445.5 843 1445.5 843 1421 892 1470 843 1519 843 1494.5 695 1494.5Z" fill="#3067FF" fill-rule="evenodd"/><rect x="925.5" y="1311.7" width="339.804" height="338.804" fill="#3067FF"/><path d="M1265.3 1311.7 1323.5 1253.5 1323.5 1592.3 1265.3 1650.5Z" fill="#2753CD" fill-rule="evenodd"/><path d="M925.5 1311.7 983.696 1253.5 1323.5 1253.5 1265.3 1311.7Z" fill="#5985FF" fill-rule="evenodd"/><path d="M925.5 1311.7 983.696 1253.5 1323.5 1253.5 1323.5 1592.3 1265.3 1650.5 925.5 1650.5ZM925.5 1311.7 1265.3 1311.7 1323.5 1253.5M1265.3 1311.7 1265.3 1650.5" stroke="#FFFFFF" stroke-width="6.875" stroke-miterlimit="8" fill="none" fill-rule="evenodd"/><rect x="1003.5" y="1502.5" width="185" height="26.9998" stroke="#FFFFFF" stroke-width="6.875" stroke-miterlimit="8" fill="#3067FF"/><rect x="1003.5" y="1543.5" width="185" height="26.0001" stroke="#FFFFFF" stroke-width="6.875" stroke-miterlimit="8" fill="#3067FF"/><rect x="1003.5" y="1583.5" width="185" height="26.9998" stroke="#FFFFFF" stroke-width="6.875" stroke-miterlimit="8" fill="#3067FF"/><rect x="1003.5" y="1624.5" width="185" height="25.9998" stroke="#FFFFFF" stroke-width="6.875" stroke-miterlimit="8" fill="#3067FF"/><rect x="1003.5" y="1462.5" width="185" height="26.9998" stroke="#FFFFFF" stroke-width="6.875" stroke-miterlimit="8" fill="#3067FF"/><g><g><g><path d="M382.719 1589.62C380.312 1592.03 377.219 1592.72 374.125 1591.34 371.031 1589.97 369.312 1587.22 369.312 1584.12 369.312 1581.03 371.375 1577.94 374.125 1576.91 377.219 1575.53 380.312 1576.22 382.719 1578.62 385.812 1581.37 385.812 1586.53 382.719 1589.62ZM625.406 1363.09 597.562 1390.94 575.562 1385.09 570.062 1363.44 597.906 1335.59C581.406 1329.41 562.844 1333.19 549.781 1344.87 536.719 1356.91 531.562 1374.78 536.031 1391.97L360.719 1567.28C354.531 1573.12 352.125 1582.06 354.187 1590.31 356.25 1598.56 362.781 1605.09 371.031 1607.16 379.281 1609.22 387.875 1606.81 394.062 1600.62L569.375 1425.31C586.562 1429.78 604.437 1424.62 616.469 1411.56 628.156 1398.5 631.937 1379.59 625.406 1363.09Z" fill="#3067FF"/><path d="M624.031 1567.28 535.344 1478.59 499.594 1514.34 585.531 1600.28 588.625 1603.37 588.969 1603.03C598.937 1610.25 612.687 1608.87 621.281 1600.28 629.875 1591.34 630.906 1577.59 624.031 1567.28L624.031 1567.28Z" fill="#3067FF"/><path d="M403.687 1373.06 404.031 1372.72 395.094 1356.22 365.531 1332.5 353.5 1344.53 377.219 1374.09 393.719 1383.03 394.062 1382.69 459.719 1448.34 469.344 1438.72Z" fill="#3067FF"/></g></g></g></g></svg>