<svg width="1137" height="762" xmlns="http://www.w3.org/2000/svg" xmlns:xlink="http://www.w3.org/1999/xlink" xml:space="preserve" overflow="hidden"><defs><clipPath id="clip0"><rect x="1558" y="190" width="1137" height="762"/></clipPath></defs><g clip-path="url(#clip0)" transform="translate(-1558 -190)"><path d="M1558 317C1558 246.86 1614.86 190 1685 190L2568 190C2638.14 190 2695 246.86 2695 317L2695 825C2695 895.14 2638.14 952 2568 952L1685 952C1614.86 952 1558 895.14 1558 825Z" fill="#FFFFFF" fill-rule="evenodd"/><rect x="1636.5" y="593.25" width="125.25" height="125.25" fill="#3067FF"/><path d="M1761.75 593.25 1803.5 551.5 1803.5 676.75 1761.75 718.5Z" fill="#2753CD" fill-rule="evenodd"/><path d="M1636.5 593.25 1678.25 551.5 1803.5 551.5 1761.75 593.25Z" fill="#5985FF" fill-rule="evenodd"/><path d="M1636.5 593.25 1678.25 551.5 1803.5 551.5 1803.5 676.75 1761.75 718.5 1636.5 718.5ZM1636.5 593.25 1761.75 593.25 1803.5 551.5M1761.75 593.25 1761.75 718.5" stroke="#FFFFFF" stroke-width="6.875" stroke-miterlimit="8" fill="none" fill-rule="evenodd"/><rect x="1775.5" y="593.25" width="125.25" height="125.25" fill="#3067FF"/><path d="M1900.75 593.25 1942.5 551.5 1942.5 676.75 1900.75 718.5Z" fill="#2753CD" fill-rule="evenodd"/><path d="M1775.5 593.25 1817.25 551.5 1942.5 551.5 1900.75 593.25Z" fill="#5985FF" fill-rule="evenodd"/><path d="M1775.5 593.25 1817.25 551.5 1942.5 551.5 1942.5 676.75 1900.75 718.5 1775.5 718.5ZM1775.5 593.25 1900.75 593.25 1942.5 551.5M1900.75 593.25 1900.75 718.5" stroke="#FFFFFF" stroke-width="6.875" stroke-miterlimit="8" fill="none" fill-rule="evenodd"/><rect x="1706.5" y="464" width="124.5" height="124.5" fill="#3067FF"/><path d="M1831 464 1872.5 422.5 1872.5 547 1831 588.5Z" fill="#2753CD" fill-rule="evenodd"/><path d="M1706.5 464 1748 422.5 1872.5 422.5 1831 464Z" fill="#5985FF" fill-rule="evenodd"/><path d="M1706.5 464 1748 422.5 1872.5 422.5 1872.5 547 1831 588.5 1706.5 588.5ZM1706.5 464 1831 464 1872.5 422.5M1831 464 1831 588.5" stroke="#FFFFFF" stroke-width="6.875" stroke-miterlimit="8" fill="none" fill-rule="evenodd"/><path d="M2190 604.5 2042 604.5 2042 629 1993 580 2042 531 2042 555.5 2190 555.5Z" fill="#3067FF" fill-rule="evenodd"/><rect x="2223.5" y="411.696" width="339.804" height="338.804" fill="#3067FF"/><path d="M2563.3 411.696 2621.5 353.5 2621.5 692.304 2563.3 750.5Z" fill="#2753CD" fill-rule="evenodd"/><path d="M2223.5 411.696 2281.7 353.5 2621.5 353.5 2563.3 411.696Z" fill="#5985FF" fill-rule="evenodd"/><path d="M2223.5 411.696 2281.7 353.5 2621.5 353.5 2621.5 692.304 2563.3 750.5 2223.5 750.5ZM2223.5 411.696 2563.3 411.696 2621.5 353.5M2563.3 411.696 2563.3 750.5" stroke="#FFFFFF" stroke-width="6.875" stroke-miterlimit="8" fill="none" fill-rule="evenodd"/><rect x="2301.5" y="602.5" width="185" height="26.9998" stroke="#FFFFFF" stroke-width="6.875" stroke-miterlimit="8" fill="#3067FF"/><rect x="2301.5" y="643.5" width="185" height="26.0001" stroke="#FFFFFF" stroke-width="6.875" stroke-miterlimit="8" fill="#3067FF"/><rect x="2301.5" y="683.5" width="185" height="27.0002" stroke="#FFFFFF" stroke-width="6.875" stroke-miterlimit="8" fill="#3067FF"/><rect x="2301.5" y="723.5" width="185" height="26.9998" stroke="#FFFFFF" stroke-width="6.875" stroke-miterlimit="8" fill="#3067FF"/><rect x="2301.5" y="562.5" width="185" height="26.0001" stroke="#FFFFFF" stroke-width="6.875" stroke-miterlimit="8" fill="#3067FF"/></g></svg>