<svg width="1165" height="789" xmlns="http://www.w3.org/2000/svg" xmlns:xlink="http://www.w3.org/1999/xlink" xml:space="preserve" overflow="hidden"><g transform="translate(-1544 -1077)"><path d="M1558 1217.83C1558 1147.79 1614.79 1091 1684.83 1091L2568.17 1091C2638.21 1091 2695 1147.79 2695 1217.83L2695 1725.17C2695 1795.21 2638.21 1852 2568.17 1852L1684.83 1852C1614.79 1852 1558 1795.21 1558 1725.17Z" stroke="#FFFFFF" stroke-width="27.5" stroke-miterlimit="8" fill="#FFFFFF" fill-rule="evenodd"/><g><g><g><path d="M219.734 40.3229 89.0676 163.844 26.2864 99.5311 4.59375 120.203 88.0468 205.953 109.995 185.536 240.406 61.7604Z" fill="#3067FF" transform="matrix(1 0 0 1 1697 1330)"/></g></g></g><g><g><g><path d="M2523.84 1381.85 2502.15 1360.16 2433.5 1428.81 2364.85 1360.16 2343.16 1381.85 2411.81 1450.5 2343.16 1519.15 2364.85 1540.84 2433.5 1472.19 2502.15 1540.84 2523.84 1519.15 2455.19 1450.5Z" fill="#3067FF"/></g></g></g><g><g><g><path d="M2275.34 1444.93C2273.71 1435.1 2264.42 1428.46 2254.6 1430.09L2215.13 1436.68C2215.13 1436.68 2198.67 1392.97 2198.67 1392.56 2190.28 1366.72 2154.28 1366.72 2126.5 1366.72 2098.72 1366.72 2062.95 1366.72 2054.74 1392.56 2054.74 1392.97 2038.14 1436.68 2038.14 1436.68L1998.67 1430.09C1988.86 1428.35 1979.5 1434.9 1977.77 1444.71 1976.03 1454.53 1982.58 1463.89 1992.39 1465.62 1992.5 1465.64 1992.61 1465.66 1992.72 1465.68L2046.85 1474.7C2047.83 1474.88 2048.82 1474.97 2049.82 1474.97 2057.36 1474.97 2064.1 1470.3 2066.74 1463.24L2077.83 1433.52 2081.4 1435.1 2081.4 1691.47 2117.48 1691.47 2117.48 1529.09 2135.52 1529.09 2135.52 1691.47 2171.6 1691.47 2171.6 1435.14C2172.91 1434.6 2174.18 1434.06 2175.39 1433.47L2186.53 1463.24C2189.16 1470.28 2195.89 1474.96 2203.4 1474.97 2204.4 1474.97 2205.4 1474.88 2206.38 1474.7L2260.5 1465.68C2270.33 1464.04 2276.97 1454.76 2275.34 1444.93Z" fill="#3067FF"/><path d="M2162.58 1321.61C2162.58 1341.54 2146.43 1357.7 2126.5 1357.7 2106.57 1357.7 2090.42 1341.54 2090.42 1321.61 2090.42 1301.69 2106.57 1285.53 2126.5 1285.53 2146.43 1285.53 2162.58 1301.69 2162.58 1321.61Z" fill="#3067FF"/></g></g></g></g></svg>